<?xml version="1.0" encoding="UTF-8"?>
<svg version="1.1" xmlns="http://www.w3.org/2000/svg" width="500" height="500">
<path d="M0 0 C165 0 330 0 500 0 C500 165 500 330 500 500 C335 500 170 500 0 500 C0 335 0 170 0 0 Z " fill="#FEFEFE" transform="translate(0,0)"/>
<path d="M0 0 C0.495 1.485 0.495 1.485 1 3 C1.99 3.33 2.98 3.66 4 4 C6.64296752 6.33203016 7.87224426 7.61673278 9 11 C9.474375 11.391875 9.94875 11.78375 10.4375 12.1875 C15.71656131 18.31121112 14.33797371 28.85510281 14.31567383 36.42797852 C14.31249269 38.69270062 14.33610373 40.95613988 14.36132812 43.22070312 C14.36359963 44.67187337 14.36430531 46.12304709 14.36328125 47.57421875 C14.36626221 48.87963623 14.36924316 50.18505371 14.37231445 51.5300293 C13.97838342 55.2014665 13.22351448 57.08805318 11 60 C8.39048764 61.30475618 6.47298715 61.11301572 3.5546875 61.09765625 C1.94013672 61.09282227 1.94013672 61.09282227 0.29296875 61.08789062 C-0.83496094 61.07951172 -1.96289062 61.07113281 -3.125 61.0625 C-4.82849609 61.05573242 -4.82849609 61.05573242 -6.56640625 61.04882812 C-9.37765638 61.03701615 -12.1888023 61.02054507 -15 61 C-15.05437005 58.14557247 -15.09384974 55.29219924 -15.125 52.4375 C-15.14175781 51.63763672 -15.15851563 50.83777344 -15.17578125 50.01367188 C-15.22115537 44.45534204 -15.16975483 38.82068128 -11.6328125 34.22265625 C-8.37062287 31.71262952 -7.24634141 31 -3 31 C-3 30.01 -3 29.02 -3 28 C-3.886875 27.773125 -4.77375 27.54625 -5.6875 27.3125 C-9.57783354 25.77104709 -11.39081879 24.26147651 -14 21 C-14.93713369 18.65959359 -15.46505118 16.48021723 -16 14 C-16.66 14 -17.32 14 -18 14 C-18.12375 14.5775 -18.2475 15.155 -18.375 15.75 C-19.60565425 20.18035528 -21.49285172 22.9938729 -25 26 C-29.76524936 28.61260776 -34.53584099 28.22730659 -39.8125 28.125 C-40.69615234 28.11597656 -41.57980469 28.10695312 -42.49023438 28.09765625 C-44.66027359 28.07419637 -46.83017247 28.03832865 -49 28 C-49.20007948 18.65184188 -45.98622825 12.93618387 -40 6 C-37.23927638 3.49608788 -35.52397996 2.17465999 -32 1 C-31.67 0.34 -31.34 -0.32 -31 -1 C-21.44460145 -4.30763796 -9.17636392 -4.7646505 0 0 Z " fill="#6372FF" transform="translate(104,187)"/>
<path d="M0 0 C2.97 0 5.94 0 9 0 C9.5775 1.32 10.155 2.64 10.75 4 C12.70455584 8.4047312 14.81393235 12.70593855 17 17 C17.42152344 15.85660156 17.84304687 14.71320313 18.27734375 13.53515625 C18.83058521 12.04421741 19.38397847 10.55333489 19.9375 9.0625 C20.21529297 8.30775391 20.49308594 7.55300781 20.77929688 6.77539062 C22.88671875 1.11328125 22.88671875 1.11328125 24 0 C25.51928038 -0.07179964 27.04167482 -0.08392007 28.5625 -0.0625 C29.38878906 -0.05347656 30.21507812 -0.04445312 31.06640625 -0.03515625 C31.70449219 -0.02355469 32.34257812 -0.01195312 33 0 C33.34158347 3.6034331 33.67169816 7.20783452 34 10.8125 C34.09539062 11.81732422 34.19078125 12.82214844 34.2890625 13.85742188 C34.89539352 20.59202712 35.12017481 27.23933254 35 34 C32.36 34 29.72 34 27 34 C26.34 28.39 25.68 22.78 25 17 C23.02 22.61 21.04 28.22 19 34 C17.35 34 15.7 34 14 34 C12.02 28.39 10.04 22.78 8 17 C7.67 17 7.34 17 7 17 C6.67 22.61 6.34 28.22 6 34 C3.36 34 0.72 34 -2 34 C-2.43300288 22.59759071 -1.12906604 11.33098418 0 0 Z " fill="#0950B0" transform="translate(144,197)"/>
<path d="M0 0 C3.54122827 -0.14601614 7.08167644 -0.2343056 10.625 -0.3125 C11.62402344 -0.35439453 12.62304688 -0.39628906 13.65234375 -0.43945312 C21.99835891 -0.57763218 21.99835891 -0.57763218 25.5859375 2.26953125 C29.05843857 6.19716596 30.25930568 8.73693444 30.1953125 13.984375 C30.18886719 14.91894531 30.18242188 15.85351562 30.17578125 16.81640625 C30.15902344 17.78449219 30.14226562 18.75257813 30.125 19.75 C30.11597656 20.73355469 30.10695313 21.71710938 30.09765625 22.73046875 C30.07412785 25.15389407 30.04125368 27.57682222 30 30 C25.93787788 30.14547545 21.87642713 30.23413226 17.8125 30.3125 C16.66201172 30.35439453 15.51152344 30.39628906 14.32617188 30.43945312 C9.5047284 30.50932912 6.03383725 30.5415338 1.71875 28.28125 C-1.01753191 23.05743908 -0.52343329 17.98005269 -0.3125 12.1875 C-0.28994141 11.01767578 -0.26738281 9.84785156 -0.24414062 8.64257812 C-0.18532091 5.76041231 -0.10317141 2.88086319 0 0 Z " fill="#6272FF" transform="translate(55,218)"/>
<path d="M0 0 C2.64 0 5.28 0 8 0 C8 11.88 8 23.76 8 36 C5.69 36 3.38 36 1 36 C1 35.34 1 34.68 1 34 C0.319375 34.515625 -0.36125 35.03125 -1.0625 35.5625 C-4.94111222 37.46054428 -6.87679425 37.17805879 -11 36 C-13.875 33.5 -13.875 33.5 -16 31 C-16.33 30.67 -16.66 30.34 -17 30 C-17.55720584 26.21896039 -17.84003776 22.52021759 -15.953125 19.10546875 C-14.17734309 16.95886179 -12.5058873 15.25294365 -10 14 C-6.97507898 14.16926453 -4.00748526 14.61332332 -1 15 C-0.67 10.05 -0.34 5.1 0 0 Z " fill="#0F54B1" transform="translate(229,195)"/>
<path d="M0 0 C0.99 0.495 1.98 0.99 3 1.5 C2.34 3.48 1.68 5.46 1 7.5 C-0.21236328 7.43039063 -0.21236328 7.43039063 -1.44921875 7.359375 C-8.11917214 7.01296476 -8.11917214 7.01296476 -14.1875 9.375 C-16.34921479 11.90942424 -16.9432946 12.98965139 -17.3125 16.3125 C-16.92835642 20.2307645 -15.70743683 21.71293267 -13 24.5 C-9.85658007 26.07170996 -6.44228549 25.73175783 -3 25.5 C-2.01 25.17 -1.02 24.84 0 24.5 C1.5625 26.8125 1.5625 26.8125 3 29.5 C2.67 30.49 2.34 31.48 2 32.5 C-4.03938385 34.51312795 -11.69117576 34.94013585 -17.59375 32.37109375 C-21.68417977 29.448268 -24.52672313 26.38022964 -26 21.5 C-26.70297995 16.2276504 -26.99019433 11.2546066 -24.0625 6.625 C-17.70359538 -0.82964808 -9.19087344 -3.83875839 0 0 Z " fill="#084FAF" transform="translate(285,197.5)"/>
<path d="M0 0 C0.66 0 1.32 0 2 0 C2.4125 1.0725 2.825 2.145 3.25 3.25 C5.76075002 9.04224192 9.30198612 11.40999369 15 14 C15 14.99 15 15.98 15 17 C13.906875 17.433125 12.81375 17.86625 11.6875 18.3125 C7.81735015 19.96894589 7.81735015 19.96894589 5 23 C3.91896305 28.08955354 3.68979375 33.19425399 3.4375 38.375 C3.293125 41.22125 3.14875 44.0675 3 47 C10.92 47 18.84 47 27 47 C27 47.33 27 47.66 27 48 C18.75 48 10.5 48 2 48 C1.67 47.34 1.34 46.68 1 46 C0.01 46.495 0.01 46.495 -1 47 C-1.01981934 46.38479492 -1.03963867 45.76958984 -1.06005859 45.13574219 C-1.15549727 42.34007458 -1.26509955 39.5451349 -1.375 36.75 C-1.4059375 35.78191406 -1.436875 34.81382812 -1.46875 33.81640625 C-1.50742188 32.88183594 -1.54609375 31.94726562 -1.5859375 30.984375 C-1.63306885 29.69611816 -1.63306885 29.69611816 -1.68115234 28.38183594 C-2.17126173 24.72065125 -3.51406535 22.55818156 -5.91796875 19.796875 C-10.56026321 17.09034084 -15.02754886 17.32438831 -20.3125 17.25 C-21.33923828 17.22035156 -22.36597656 17.19070312 -23.42382812 17.16015625 C-25.94929675 17.08967806 -28.47385415 17.0368734 -31 17 C-31 16.01 -31 15.02 -31 14 C-29.02966797 13.90912109 -29.02966797 13.90912109 -27.01953125 13.81640625 C-25.28384459 13.73196744 -23.54816802 13.64732112 -21.8125 13.5625 C-20.94818359 13.52318359 -20.08386719 13.48386719 -19.19335938 13.44335938 C-13.02309167 13.21617686 -13.02309167 13.21617686 -7 12 C-5.63979849 10.03241727 -5.63979849 10.03241727 -5 8 C-4.34 8 -3.68 8 -3 8 C-1.92474806 5.34771188 -0.90543849 2.71631546 0 0 Z " fill="#ECEEFF" transform="translate(86,201)"/>
<path d="M0 0 C3.9650783 1.5659745 6.59988253 3.3998238 9 7 C9.75937331 13.617396 9.75937331 13.617396 8.01953125 16.78515625 C4.59434181 21.07454734 2.03986982 22.76907134 -3.3125 23.375 C-8.34382224 22.86334011 -12.11923058 21.28963234 -15.4375 17.25 C-16.3073206 13.77071761 -16.69917893 10.51687001 -16 7 C-11.49757378 1.40238902 -7.21074273 -1.09613855 0 0 Z " fill="#0B52B0" transform="translate(309,209)"/>
<path d="M0 0 C3.70390021 2.02666238 5.65363011 3.48044516 8 7 C8 8.65 8 10.3 8 12 C3.05 12 -1.9 12 -7 12 C-6.34 13.32 -5.68 14.64 -5 16 C-2.45985855 16.07055948 -0.32486539 16.09554864 2.125 15.375 C2.74375 15.25125 3.3625 15.1275 4 15 C4.99 15.66 5.98 16.32 7 17 C6 20 6 20 3.5 21.75 C-1.01570031 23.36275011 -4.41033212 23.35238833 -9 22 C-12.10354599 19.93096934 -13.5785371 18.45404702 -14.625 14.84375 C-15.21956707 11.12770579 -15.25795951 8.65922987 -13.875 5.125 C-9.76318014 0.4649375 -6.19427378 -0.76070029 0 0 Z " fill="#0C52B1" transform="translate(199,209)"/>
<path d="M0 0 C5.63862269 3.49816273 5.63862269 3.49816273 6.48242188 7.00488281 C6.59037529 9.30143902 6.52498015 11.51857278 6.375 13.8125 C6.34792969 14.60076172 6.32085937 15.38902344 6.29296875 16.20117188 C6.22263676 18.13530157 6.11502458 20.06801304 6 22 C3.36 22 0.72 22 -2 22 C-2.33 17.05 -2.66 12.1 -3 7 C-4.65 7 -6.3 7 -8 7 C-9.94090826 8.94090826 -9.39919435 12.47293902 -9.5625 15.0625 C-9.64628906 16.35285156 -9.73007812 17.64320313 -9.81640625 18.97265625 C-9.87699219 19.97167969 -9.93757813 20.97070312 -10 22 C-12.31 22 -14.62 22 -17 22 C-17 15.07 -17 8.14 -17 1 C-14 1 -11 1 -8 1 C-5.09704195 -0.45147903 -3.22738221 -0.37239025 0 0 Z " fill="#0950B0" transform="translate(372,209)"/>
<path d="M0 0 C3.25503749 1.16690023 4.32062888 2.79105447 6.0703125 5.7421875 C6.52995588 8.53721957 6.45147887 11.2320882 6.3203125 14.0546875 C6.30226563 14.79525391 6.28421875 15.53582031 6.265625 16.29882812 C6.21878587 18.1138446 6.14705039 19.92818916 6.0703125 21.7421875 C3.4303125 21.7421875 0.7903125 21.7421875 -1.9296875 21.7421875 C-2.2596875 17.1221875 -2.5896875 12.5021875 -2.9296875 7.7421875 C-4.5796875 7.4121875 -6.2296875 7.0821875 -7.9296875 6.7421875 C-9.87059576 8.68309576 -9.32888185 12.21512652 -9.4921875 14.8046875 C-9.57597656 16.09503906 -9.65976562 17.38539063 -9.74609375 18.71484375 C-9.80667969 19.71386719 -9.86726563 20.71289062 -9.9296875 21.7421875 C-12.2396875 21.7421875 -14.5496875 21.7421875 -16.9296875 21.7421875 C-16.9296875 14.8121875 -16.9296875 7.8821875 -16.9296875 0.7421875 C-13.9296875 0.7421875 -10.9296875 0.7421875 -7.9296875 0.7421875 C-5.24254938 -0.60138156 -2.93286975 -0.18957713 0 0 Z " fill="#0A51B0" transform="translate(341.9296875,209.2578125)"/>
<path d="M0 0 C2.8100346 1.79363911 4.50940468 3.01880935 6 6 C6 7.98 6 9.96 6 12 C1.05 12 -3.9 12 -9 12 C-8.01 13.32 -7.02 14.64 -6 16 C-3.31035198 16.34482667 -1.44966905 16.14548116 1.125 15.3125 C1.74375 15.209375 2.3625 15.10625 3 15 C4.75 16.4375 4.75 16.4375 6 18 C3.69066585 20.54823079 1.8096615 21.86283096 -1.60546875 22.44140625 C-6.52440423 22.64719167 -9.11792231 22.67037904 -13.125 19.625 C-16.09762123 15.46333028 -16.71078445 12.07285886 -16 7 C-12.14865479 0.67279001 -7.32993191 -1.22165532 0 0 Z " fill="#0950B0" transform="translate(400,209)"/>
<path d="M0 0 C2.31 0 4.62 0 7 0 C7 2.64 7 5.28 7 8 C8.32 8 9.64 8 11 8 C11 9.65 11 11.3 11 13 C9.68 13 8.36 13 7 13 C7.33 15.97 7.66 18.94 8 22 C8.99 22.33 9.98 22.66 11 23 C11.33 24.98 11.66 26.96 12 29 C10.56344146 29.08131463 9.1255517 29.13933559 7.6875 29.1875 C6.48673828 29.23970703 6.48673828 29.23970703 5.26171875 29.29296875 C3 29 3 29 1.21875 27.90625 C-0.60763905 25.0495902 -0.28691682 22.65953295 -0.1875 19.3125 C-0.16042969 18.13300781 -0.13335937 16.95351562 -0.10546875 15.73828125 C-0.07066406 14.83464844 -0.03585937 13.93101562 0 13 C-0.99 13 -1.98 13 -3 13 C-3 11.35 -3 9.7 -3 8 C-2.01 8 -1.02 8 0 8 C0 5.36 0 2.72 0 0 Z " fill="#024BAD" transform="translate(438,202)"/>
<path d="M0 0 C-0.375 2.4375 -0.375 2.4375 -1 5 C-3.46074606 6.23037303 -5.2797563 6 -8 6 C-9.20561184 6.98267859 -9.20561184 6.98267859 -9.09765625 8.84765625 C-9.08605469 9.57855469 -9.07445312 10.30945313 -9.0625 11.0625 C-9.041875 12.361875 -9.02125 13.66125 -9 15 C-6.36 15 -3.72 15 -1 15 C-0.67 16.65 -0.34 18.3 0 20 C-3.25847547 22.30808679 -6.15272414 22.21054407 -10.03125 21.6171875 C-13.24257981 20.61046109 -14.93704881 18.56306057 -17 16 C-18.60306924 12.79386153 -18.48740461 9.47860003 -18 6 C-14.1208506 -0.37288831 -7.21409719 -3.60704859 0 0 Z " fill="#1055B2" transform="translate(430,210)"/>
<path d="M0 0 C2.31 0 4.62 0 7 0 C7 6.93 7 13.86 7 21 C4.69 21 2.38 21 0 21 C0 14.07 0 7.14 0 0 Z " fill="#004AAD" transform="translate(245,210)"/>
<path d="M0 0 C2.4375 0.875 2.4375 0.875 4.4375 3.875 C3.89695946 8.41554054 3.89695946 8.41554054 2.4375 9.875 C-0.5 10.0625 -0.5 10.0625 -3.5625 9.875 C-5.5625 7.875 -5.5625 7.875 -5.875 5.4375 C-5.5625 2.875 -5.5625 2.875 -4.375 1 C-2.5625 -0.125 -2.5625 -0.125 0 0 Z " fill="#EFF3FA" transform="translate(225.5625,215.125)"/>
<path d="M0 0 C0.763125 0.20625 1.52625 0.4125 2.3125 0.625 C2.9375 4 2.9375 4 3.3125 7.625 C1.3125 9.625 1.3125 9.625 -1.75 9.8125 C-4.6875 9.625 -4.6875 9.625 -5.6875 8.625 C-5.9375 5.1875 -5.9375 5.1875 -5.6875 1.625 C-2.6875 -0.375 -2.6875 -0.375 0 0 Z " fill="#F1F5FA" transform="translate(306.6875,215.375)"/>
<path d="M0 0 C2.5625 0.1875 2.5625 0.1875 4.5625 2.1875 C4.00694444 6.74305556 4.00694444 6.74305556 2.5625 8.1875 C0.125 8.375 0.125 8.375 -2.4375 8.1875 C-3.0975 7.5275 -3.7575 6.8675 -4.4375 6.1875 C-3.71780303 0.28598485 -3.71780303 0.28598485 0 0 Z " fill="#0E54B1" transform="translate(248.4375,196.8125)"/>
<path d="M0 0 C0.33 0 0.66 0 1 0 C1 1.65 1 3.3 1 5 C-0.1446875 5.1546875 -0.1446875 5.1546875 -1.3125 5.3125 C-4.02954673 5.75593985 -4.02954673 5.75593985 -5.5 7.5625 C-7 9 -7 9 -9.5 9.375 C-12 9 -12 9 -13.8125 7.625 C-15 6 -15 6 -15 4 C-10.05 4 -5.1 4 0 4 C0 2.68 0 1.36 0 0 Z " fill="#C0D2EB" transform="translate(406,217)"/>
<path d="M0 0 C4.95 0 9.9 0 15 0 C13.68 0.33 12.36 0.66 11 1 C11 1.66 11 2.32 11 3 C7.88401212 4.84651134 5.61754103 5.38079379 2 5 C1.34 4.34 0.68 3.68 0 3 C0 2.01 0 1.02 0 0 Z " fill="#D0DDF0" transform="translate(192,221)"/>
<path d="M0 0 C-0.33 1.65 -0.66 3.3 -1 5 C-2.65 4.67 -4.3 4.34 -6 4 C-6 2.68 -6 1.36 -6 0 C-3.50907189 -1.24546405 -2.58919267 -0.7767578 0 0 Z " fill="#7885FF" transform="translate(118,185)"/>
<path d="M0 0 C-1.44077046 3.36179774 -3.24750021 5.59156268 -6 8 C-6.66 8 -7.32 8 -8 8 C-6.48291727 4.46014029 -4.24676932 0 0 0 Z " fill="#818DFF" transform="translate(69,190)"/>
<path d="M0 0 C-1.28519565 2.86697492 -2.57129254 4.97607712 -5 7 C-5.66 7 -6.32 7 -7 7 C-3.86206897 0 -3.86206897 0 0 0 Z " fill="#8490FF" transform="translate(97,219)"/>
<path d="M0 0 C1.65 0 3.3 0 5 0 C5.33 0.99 5.66 1.98 6 3 C3.69 3 1.38 3 -1 3 C-0.67 2.01 -0.34 1.02 0 0 Z " fill="#ECF1F8" transform="translate(393,214)"/>
<path d="M0 0 C1.65 0.33 3.3 0.66 5 1 C4.67 2.32 4.34 3.64 4 5 C2.02 5 0.04 5 -2 5 C-0.68 4.67 0.64 4.34 2 4 C2 3.01 2 2.02 2 1 C1.34 0.67 0.68 0.34 0 0 Z " fill="#949EFF" transform="translate(99,214)"/>
<path d="M0 0 C0 0.66 0 1.32 0 2 C-2.31 2 -4.62 2 -7 2 C-7 1.34 -7 0.68 -7 0 C-4.3333581 -1.33332095 -2.83319697 -0.67102033 0 0 Z " fill="#F1F5FA" transform="translate(199,215)"/>
</svg>
